<mxfile host="app.diagrams.net" agent="Mozilla/5.0 (Windows NT 10.0; Win64; x64) AppleWebKit/537.36 (KHTML, like Gecko) Chrome/138.0.0.0 Safari/537.36 Edg/138.0.0.0" version="28.0.6">
  <diagram name="Page-1" id="Yay8gkdrrfTUArw_L0t_">
    <mxGraphModel dx="1378" dy="752" grid="1" gridSize="8" guides="1" tooltips="1" connect="1" arrows="1" fold="1" page="1" pageScale="1" pageWidth="1100" pageHeight="850" background="none" math="0" shadow="1">
      <root>
        <mxCell id="0" />
        <mxCell id="1" parent="0" />
        <mxCell id="YleI4EzTrmfIdfU0BML3-26" value="" style="rounded=0;whiteSpace=wrap;html=1;fillColor=#d5e8d4;strokeColor=#82b366;" parent="1" vertex="1">
          <mxGeometry x="50" y="72" width="660" height="380" as="geometry" />
        </mxCell>
        <mxCell id="iATs5-p0Ry6HwTi2f4iV-7" style="edgeStyle=orthogonalEdgeStyle;rounded=0;orthogonalLoop=1;jettySize=auto;html=1;exitX=0.5;exitY=0;exitDx=0;exitDy=0;entryX=0;entryY=0.75;entryDx=0;entryDy=0;strokeWidth=2;" parent="1" source="ynbUYO4sn585GT9K957H-20" target="YleI4EzTrmfIdfU0BML3-15" edge="1">
          <mxGeometry relative="1" as="geometry" />
        </mxCell>
        <mxCell id="iATs5-p0Ry6HwTi2f4iV-8" value="&lt;b&gt;TCP&amp;nbsp;21114-21118&lt;/b&gt;&lt;div&gt;&lt;b&gt;HTTPS 443&lt;/b&gt;&lt;/div&gt;" style="edgeLabel;html=1;align=center;verticalAlign=middle;resizable=0;points=[];" parent="iATs5-p0Ry6HwTi2f4iV-7" vertex="1" connectable="0">
          <mxGeometry x="-0.6002" y="-2" relative="1" as="geometry">
            <mxPoint x="-1" y="-12" as="offset" />
          </mxGeometry>
        </mxCell>
        <mxCell id="ynbUYO4sn585GT9K957H-20" value="" style="rounded=0;whiteSpace=wrap;html=1;fillColor=#f5f5f5;strokeColor=#666666;fontColor=#333333;" parent="1" vertex="1">
          <mxGeometry x="81" y="312" width="271" height="104" as="geometry" />
        </mxCell>
        <mxCell id="YleI4EzTrmfIdfU0BML3-15" value="" style="rounded=0;whiteSpace=wrap;html=1;fillColor=#f5f5f5;strokeColor=#666666;fontColor=#333333;" parent="1" vertex="1">
          <mxGeometry x="282" y="101" width="130" height="150" as="geometry" />
        </mxCell>
        <mxCell id="ynbUYO4sn585GT9K957H-1" value="APT Mirror Server&lt;div&gt;Ansible Controller&lt;/div&gt;" style="image;sketch=0;aspect=fixed;html=1;points=[];align=center;fontSize=12;image=img/lib/mscae/VM_Linux.svg;" parent="1" vertex="1">
          <mxGeometry x="305" y="110.19999999999999" width="80" height="73.6" as="geometry" />
        </mxCell>
        <mxCell id="iATs5-p0Ry6HwTi2f4iV-19" value="&lt;b&gt;Production Network&lt;/b&gt;" style="text;html=1;align=center;verticalAlign=middle;whiteSpace=wrap;rounded=0;fontSize=13;" parent="1" vertex="1">
          <mxGeometry x="274.75" y="42" width="142.5" height="30" as="geometry" />
        </mxCell>
        <mxCell id="iATs5-p0Ry6HwTi2f4iV-20" value="&lt;b&gt;All connections monitored via server&lt;/b&gt;" style="text;html=1;align=center;verticalAlign=middle;whiteSpace=wrap;rounded=0;" parent="1" vertex="1">
          <mxGeometry x="236.5" y="247" width="215" height="30" as="geometry" />
        </mxCell>
        <mxCell id="iATs5-p0Ry6HwTi2f4iV-24" value="&lt;div&gt;&lt;b&gt;Firewall Ruleset Required!&lt;/b&gt;&lt;/div&gt;" style="text;html=1;align=center;verticalAlign=middle;whiteSpace=wrap;rounded=0;" parent="1" vertex="1">
          <mxGeometry x="496" y="24" width="180" height="30" as="geometry" />
        </mxCell>
        <mxCell id="KJ8qABfEN3y5GjXMAreh-1" value="SVBT-01" style="image;sketch=0;aspect=fixed;html=1;points=[];align=center;fontSize=12;image=img/lib/mscae/VM_Linux.svg;" vertex="1" parent="1">
          <mxGeometry x="96" y="323.3" width="66.75" height="61.41" as="geometry" />
        </mxCell>
        <mxCell id="KJ8qABfEN3y5GjXMAreh-4" value="SVBT-02" style="image;sketch=0;aspect=fixed;html=1;points=[];align=center;fontSize=12;image=img/lib/mscae/VM_Linux.svg;" vertex="1" parent="1">
          <mxGeometry x="184" y="323.3" width="66.75" height="61.41" as="geometry" />
        </mxCell>
        <mxCell id="KJ8qABfEN3y5GjXMAreh-9" value="SVBT-03" style="image;sketch=0;aspect=fixed;html=1;points=[];align=center;fontSize=12;image=img/lib/mscae/VM_Linux.svg;" vertex="1" parent="1">
          <mxGeometry x="272" y="326" width="66.75" height="61.41" as="geometry" />
        </mxCell>
      </root>
    </mxGraphModel>
  </diagram>
</mxfile>
